<?xml version="1.0" ?><svg enable-background="new 0 0 24 24" height="24px" id="Layer_1" version="1.1" viewBox="0 0 24 24" width="24px" xml:space="preserve" xmlns="http://www.w3.org/2000/svg" xmlns:xlink="http://www.w3.org/1999/xlink"><rect fill="none" height="24" width="24"/><g><path d="M12.8488,1.9106   L23.02,10.7213c0.526,0.4549,0.5915,1.2611,0.146,1.7993c-0.4451,0.5382-1.6476,0.0083-1.6476,0.0083v10.1472   c0,0.4406-0.3488,0.7975-0.7799,0.7975h-6.1268v-8.7603H9.4412v8.7603H3.3144c-0.4311,0-0.7799-0.3569-0.7799-0.7975V12.5289   c0,0-1.2025,0.5298-1.6476-0.0083c-0.4455-0.5381-0.38-1.3444,0.146-1.7993L11.204,1.9106c0.4659-0.4031,1.1478-0.4031,1.6136,0   H12.8488z" fill="none" stroke="#231F20" stroke-linecap="round" stroke-linejoin="round" stroke-miterlimit="10"/></g></svg>