<?xml version="1.0" ?><svg height="512" id="svg4156" version="1.1" width="512" xmlns="http://www.w3.org/2000/svg" xmlns:cc="http://creativecommons.org/ns#" xmlns:dc="http://purl.org/dc/elements/1.1/" xmlns:inkscape="http://www.inkscape.org/namespaces/inkscape" xmlns:rdf="http://www.w3.org/1999/02/22-rdf-syntax-ns#" xmlns:sodipodi="http://sodipodi.sourceforge.net/DTD/sodipodi-0.dtd" xmlns:svg="http://www.w3.org/2000/svg"><defs id="defs4158"/><g id="layer1" transform="translate(0,448)"><g id="g28525" transform="matrix(1.0003741,0,0,1.0003741,13254.257,-27286.07)"><path d="m -13039.969,26834.031 c -23.422,0 -42.531,19.169 -42.531,42.563 l 0,69.094 0,177.312 0,69.875 c -20.771,13.815 -34.344,37.165 -34.344,63.813 0,42.53 34.817,77.156 77.313,77.156 42.498,0 76.875,-34.689 76.875,-77.156 0,-26.739 -14.026,-50.025 -34.813,-63.813 l 0,-69.875 0,-177.312 0,-69.094 c 0,-23.401 -19.096,-42.563 -42.5,-42.563 z m 0,16 c 14.742,0 26.5,11.793 26.5,26.563 l 0,69.094 0,177.312 0,74.156 a 8.0008,8.0008 0 0 0 4,6.906 c 18.394,10.652 30.813,30.071 30.813,52.626 0,33.89 -27.03,61.156 -60.875,61.156 -33.842,0 -61.313,-27.329 -61.313,-61.156 0,-22.652 11.996,-42.002 30.344,-52.626 a 8.0008,8.0008 0 0 0 4,-6.906 l 0,-74.156 0,-177.312 0,-69.094 c 0,-14.777 11.76,-26.563 26.531,-26.563 z" id="path3-4-3" style="font-size:medium;font-style:normal;font-variant:normal;font-weight:normal;font-stretch:normal;text-indent:0;text-align:start;text-decoration:none;line-height:normal;letter-spacing:normal;word-spacing:normal;text-transform:none;direction:ltr;block-progression:tb;writing-mode:lr-tb;text-anchor:start;baseline-shift:baseline;color:#000000;fill:#333333;fill-opacity:1;stroke:none;stroke-width:16;marker:none;visibility:visible;display:inline;overflow:visible;enable-background:accumulate;font-family:Sans;-inkscape-font-specification:Sans"/><path d="m -12960.5,26881.312 a 8.0008,8.0008 0 1 0 0,16 l 82.438,0 a 8.0008,8.0008 0 1 0 0,-16 l -82.438,0 z" id="rect6287-6-2-2-2-1-4-0-6-72" style="font-size:medium;font-style:normal;font-variant:normal;font-weight:normal;font-stretch:normal;text-indent:0;text-align:start;text-decoration:none;line-height:normal;letter-spacing:normal;word-spacing:normal;text-transform:none;direction:ltr;block-progression:tb;writing-mode:lr-tb;text-anchor:start;baseline-shift:baseline;color:#000000;fill:#333333;fill-opacity:1;stroke:none;stroke-width:16;marker:none;visibility:visible;display:inline;overflow:visible;enable-background:accumulate;font-family:Sans;-inkscape-font-specification:Sans"/><path d="m -12960.5,26936.125 a 8.0008,8.0008 0 1 0 0,16 l 32.656,0 a 8.0008,8.0008 0 1 0 0,-16 l -32.656,0 z" id="rect6287-6-2-2-2-1-4-0-6-1-60" style="font-size:medium;font-style:normal;font-variant:normal;font-weight:normal;font-stretch:normal;text-indent:0;text-align:start;text-decoration:none;line-height:normal;letter-spacing:normal;word-spacing:normal;text-transform:none;direction:ltr;block-progression:tb;writing-mode:lr-tb;text-anchor:start;baseline-shift:baseline;color:#000000;fill:#333333;fill-opacity:1;stroke:none;stroke-width:16;marker:none;visibility:visible;display:inline;overflow:visible;enable-background:accumulate;font-family:Sans;-inkscape-font-specification:Sans"/><path d="m -12960.5,26990.938 a 8.0008,8.0008 0 1 0 0,16 l 82.438,0 a 8.0008,8.0008 0 1 0 0,-16 l -82.438,0 z" id="rect6287-6-2-2-2-1-4-0-6-8-1" style="font-size:medium;font-style:normal;font-variant:normal;font-weight:normal;font-stretch:normal;text-indent:0;text-align:start;text-decoration:none;line-height:normal;letter-spacing:normal;word-spacing:normal;text-transform:none;direction:ltr;block-progression:tb;writing-mode:lr-tb;text-anchor:start;baseline-shift:baseline;color:#000000;fill:#333333;fill-opacity:1;stroke:none;stroke-width:16;marker:none;visibility:visible;display:inline;overflow:visible;enable-background:accumulate;font-family:Sans;-inkscape-font-specification:Sans"/><path d="m -12960.5,27045.75 a 8.0008,8.0008 0 1 0 0,16 l 32.656,0 a 8.0008,8.0008 0 1 0 0,-16 l -32.656,0 z" id="rect6287-6-2-2-2-1-4-0-6-1-4-6" style="font-size:medium;font-style:normal;font-variant:normal;font-weight:normal;font-stretch:normal;text-indent:0;text-align:start;text-decoration:none;line-height:normal;letter-spacing:normal;word-spacing:normal;text-transform:none;direction:ltr;block-progression:tb;writing-mode:lr-tb;text-anchor:start;baseline-shift:baseline;color:#000000;fill:#333333;fill-opacity:1;stroke:none;stroke-width:16;marker:none;visibility:visible;display:inline;overflow:visible;enable-background:accumulate;font-family:Sans;-inkscape-font-specification:Sans"/><path d="m -12960.5,27100.562 a 8.0008,8.0008 0 1 0 0,16 l 82.438,0 a 8.0008,8.0008 0 1 0 0,-16 l -82.438,0 z" id="rect6287-6-2-2-2-1-4-0-6-9-5" style="font-size:medium;font-style:normal;font-variant:normal;font-weight:normal;font-stretch:normal;text-indent:0;text-align:start;text-decoration:none;line-height:normal;letter-spacing:normal;word-spacing:normal;text-transform:none;direction:ltr;block-progression:tb;writing-mode:lr-tb;text-anchor:start;baseline-shift:baseline;color:#000000;fill:#333333;fill-opacity:1;stroke:none;stroke-width:16;marker:none;visibility:visible;display:inline;overflow:visible;enable-background:accumulate;font-family:Sans;-inkscape-font-specification:Sans"/><path d="m -12960.5,27155.375 a 8.0008,8.0008 0 1 0 0,16 l 32.656,0 a 8.0008,8.0008 0 1 0 0,-16 l -32.656,0 z" id="rect6287-6-2-2-2-1-4-0-6-1-6-7" style="font-size:medium;font-style:normal;font-variant:normal;font-weight:normal;font-stretch:normal;text-indent:0;text-align:start;text-decoration:none;line-height:normal;letter-spacing:normal;word-spacing:normal;text-transform:none;direction:ltr;block-progression:tb;writing-mode:lr-tb;text-anchor:start;baseline-shift:baseline;color:#000000;fill:#333333;fill-opacity:1;stroke:none;stroke-width:16;marker:none;visibility:visible;display:inline;overflow:visible;enable-background:accumulate;font-family:Sans;-inkscape-font-specification:Sans"/><path d="m -13039.875,26967.406 a 8.0008,8.0008 0 0 0 -7.875,8.125 l 0,237.969 a 8.0008,8.0008 0 1 0 16,0 l 0,-237.969 a 8.0008,8.0008 0 0 0 -8.125,-8.125 z" id="rect6287-6-2-2-2-1-4-0-6-8-3-5" style="font-size:medium;font-style:normal;font-variant:normal;font-weight:normal;font-stretch:normal;text-indent:0;text-align:start;text-decoration:none;line-height:normal;letter-spacing:normal;word-spacing:normal;text-transform:none;direction:ltr;block-progression:tb;writing-mode:lr-tb;text-anchor:start;baseline-shift:baseline;color:#000000;fill:#f65314;fill-opacity:1;stroke:none;stroke-width:16;marker:none;visibility:visible;display:inline;overflow:visible;enable-background:accumulate;font-family:Sans;-inkscape-font-specification:Sans"/><path d="m -13040.25,27659.969 c -14.919,0.213 -29.34,8.121 -37.156,21.937 -11.722,20.721 -4.377,47.277 16.344,59 20.721,11.723 47.277,4.315 59,-16.406 11.722,-20.722 4.347,-47.246 -16.376,-58.969 a 8.0008,8.0008 0 0 0 -0.562,-0.281 8.0008,8.0008 0 0 0 -0.156,-0.09 8.0008,8.0008 0 0 0 -0.03,0 8.0008,8.0008 0 0 0 -0.312,-0.187 c -5.158,-2.735 -10.624,-4.299 -16.125,-4.813 l 0,-0.03 c -1.547,-0.145 -3.082,-0.178 -4.625,-0.156 z" id="path28522" style="font-size:medium;font-style:normal;font-variant:normal;font-weight:normal;font-stretch:normal;text-indent:0;text-align:start;text-decoration:none;line-height:normal;letter-spacing:normal;word-spacing:normal;text-transform:none;direction:ltr;block-progression:tb;writing-mode:lr-tb;text-anchor:start;baseline-shift:baseline;color:#000000;fill:#f65314;fill-opacity:1;stroke:none;stroke-width:15.8133831;marker:none;visibility:visible;display:inline;overflow:visible;enable-background:accumulate;font-family:Sans;-inkscape-font-specification:Sans" transform="translate(0,-448)"/></g></g></svg>